<svg width="24" height="24" viewBox="0 0 24 24" fill="none" xmlns="http://www.w3.org/2000/svg">
<path d="M12.0351 10.7778C13.1021 10.7778 13.9671 9.91283 13.9671 8.84585C13.9671 7.77887 13.1021 6.91391 12.0351 6.91391C10.9681 6.91391 10.1032 7.77887 10.1032 8.84585C10.1032 9.91283 10.9681 10.7778 12.0351 10.7778Z" fill="#396AFC"/>
<path d="M11.9998 0C5.37257 0 0 5.37269 0 11.9999C0 18.6269 5.37257 24 11.9998 24C18.627 24 24 18.6269 24 11.9999C24 5.37269 18.627 0 11.9998 0ZM11.9749 5.4943C11.9834 5.4943 11.9917 5.49389 12 5.49349C12.0084 5.49389 12.0166 5.4943 12.0252 5.4943C14.0471 5.52622 15.6919 7.19735 15.6919 9.21977C15.6919 11.6924 13.05 14.1962 12 15.0933C11.9299 15.0333 11.8521 14.9657 11.7689 14.8917C11.7675 14.8904 11.7662 14.8893 11.765 14.8881C10.6031 13.8557 8.30822 11.5245 8.30822 9.21977C8.30814 7.19735 9.95313 5.5263 11.9749 5.4943ZM12.0521 18.5802C9.83904 18.5802 7.59853 17.9453 7.59853 16.7323C7.59853 15.881 8.70175 15.315 10.1241 15.0527C10.3992 15.3293 10.6596 15.5731 10.8881 15.7766C9.3388 15.9497 8.42854 16.4402 8.42854 16.7321C8.42854 17.0908 9.80416 17.75 12.0521 17.75C14.3001 17.75 15.6759 17.0908 15.6759 16.7321C15.6759 16.4342 14.7273 15.9314 13.1217 15.7679C13.3522 15.5621 13.6147 15.316 13.8919 15.0365C15.357 15.2916 16.5059 15.8634 16.5059 16.7323C16.5059 17.9453 14.2654 18.5802 12.0521 18.5802Z" fill="#396AFC"/>
</svg>
